<svg width="165" height="79" viewBox="0 0 165 79" fill="none" xmlns="http://www.w3.org/2000/svg">
<path d="M35.1131 74.409H34.871L35.7911 72.9101C36.0817 72.475 36.227 72.1849 36.3238 71.9914C36.4207 71.798 36.5175 71.5563 36.6144 71.1695L36.6628 70.9277H37.244L36.905 72.0398L36.4691 73.2002C36.905 72.5717 37.3408 72.2815 37.7282 72.2815C37.9704 72.2815 38.1641 72.3782 38.3578 72.62C38.5515 72.8618 38.6 73.1035 38.6 73.442C38.6 73.8288 38.5031 74.3123 38.3094 74.7958C38.1157 75.3276 37.8251 75.7144 37.4377 76.0529C37.0502 76.3913 36.7112 76.5364 36.3238 76.5364C35.9848 76.5364 35.7427 76.3913 35.6458 76.0529L35.0647 77.9385C35.0162 78.1803 34.9678 78.3254 34.9678 78.3737C34.9678 78.4221 35.0162 78.4704 35.0162 78.5188C35.0647 78.5671 35.21 78.5671 35.4521 78.5671H35.6942L35.6458 78.7605H33.6118L33.6602 78.5671H33.7571C34.0477 78.5671 34.2414 78.5671 34.2898 78.5188C34.3382 78.4704 34.4351 78.277 34.532 77.8902L35.549 74.5057C35.7427 73.7804 36.0332 73.1035 36.2754 72.3782C36.227 72.4266 36.1785 72.5717 36.0332 72.8134C36.0332 72.8618 35.9848 72.9101 35.888 73.0552L35.1131 74.409ZM36.0332 75.1342C35.9364 75.4243 35.888 75.6177 35.888 75.7628C35.888 75.9078 35.9364 76.0529 36.0332 76.1496C36.1301 76.2463 36.227 76.2946 36.4207 76.2946C36.6628 76.2946 36.905 76.1496 37.1471 75.9078C37.3892 75.6177 37.6314 75.1826 37.8251 74.554C38.0188 73.9255 38.1157 73.442 38.1157 73.1035C38.1157 72.9101 38.0672 72.7167 38.0188 72.62C37.9704 72.5233 37.8735 72.475 37.7282 72.475C37.5345 72.475 37.3408 72.62 37.0018 72.8618C36.7112 73.1035 36.4207 73.6354 36.1785 74.4573L36.0332 75.1342Z" fill="#53575A"/>
<path d="M41.8931 75.1342C41.8931 74.7474 41.9899 74.3122 42.1836 73.877C42.3774 73.3935 42.6195 73.0551 42.9585 72.765C43.2975 72.4749 43.6365 72.3298 43.9271 72.3298C44.2176 72.3298 44.4598 72.4749 44.6535 72.7166C44.8472 72.9584 44.9441 73.2968 44.9441 73.732C44.9441 74.2638 44.8472 74.7474 44.6535 75.1825C44.4598 75.6177 44.1692 76.0045 43.8786 76.2462C43.5396 76.488 43.2491 76.633 42.9585 76.633C42.6679 76.633 42.4258 76.5363 42.2321 76.3429C41.9899 76.0045 41.8931 75.666 41.8931 75.1342ZM42.3774 75.7144C42.3774 75.9078 42.4258 76.0528 42.5226 76.1495C42.6195 76.2946 42.7164 76.3429 42.9101 76.3429C43.3459 76.3429 43.6849 75.9078 43.9755 75.0858C44.2661 74.2638 44.4113 73.6353 44.4113 73.2001C44.4113 72.9584 44.3629 72.8133 44.2661 72.7166C44.1692 72.6199 44.0724 72.5232 43.8786 72.5232C43.4912 72.5232 43.1038 72.91 42.8132 73.6836C42.5226 74.4089 42.3774 75.0858 42.3774 75.7144Z" fill="#53575A"/>
<path d="M48.2855 73.587H48.0918C48.2371 73.2001 48.3824 72.9101 48.6245 72.6683C48.8182 72.4265 49.0604 72.2815 49.2541 72.2815C49.3994 72.2815 49.4962 72.3298 49.5446 72.4265C49.5931 72.5232 49.6415 72.7167 49.6415 72.9584C49.6415 73.2485 49.5446 73.6353 49.3994 74.1672C49.3994 74.1188 49.4962 74.0221 49.5446 73.8287C49.7868 73.2969 49.9805 72.9101 50.1742 72.6683C50.3679 72.4265 50.5616 72.2815 50.7069 72.2815C50.8038 72.2815 50.9006 72.3298 50.9975 72.3782C51.0459 72.4265 51.0944 72.5232 51.0944 72.6199C51.0944 72.7166 51.0459 72.8133 50.9975 72.8617C50.9491 72.91 50.8522 72.9584 50.8038 72.9584C50.7069 72.9584 50.6101 72.9101 50.5132 72.8134C50.4648 72.765 50.4648 72.765 50.4164 72.765C50.2711 72.765 49.9805 73.1518 49.6415 73.9254C49.3025 74.699 49.0119 75.4726 48.8182 76.1495L48.7214 76.488H48.1402L48.9151 73.8771C49.0604 73.3936 49.1572 73.0551 49.1572 72.8617C49.1572 72.765 49.1572 72.7166 49.1088 72.6683C49.0604 72.6199 49.0604 72.6199 49.0119 72.6199C48.9151 72.6199 48.7698 72.7167 48.6245 72.9584C48.4792 73.2002 48.3339 73.3936 48.2855 73.587Z" fill="#53575A"/>
<path d="M63.1533 75.2793L65.5747 69.7674H67.6087V70.0091H67.3665C67.0275 70.0091 66.8338 70.0575 66.737 70.1058C66.6401 70.1542 66.5433 70.2509 66.5433 70.3959C66.4948 70.541 66.4948 70.8794 66.4948 71.4596V74.6991C66.4948 75.231 66.4948 75.5694 66.5433 75.7145C66.5917 75.8595 66.6401 76.0046 66.737 76.0529C66.8338 76.1496 67.0275 76.1496 67.3665 76.1496H67.6571V76.3914H64.4608V76.1496H64.703C64.9935 76.1496 65.1873 76.1013 65.2841 76.0529C65.381 76.0046 65.4778 75.8595 65.4778 75.7145C65.5263 75.5694 65.5263 75.231 65.5263 74.6508V70.4443L62.9111 76.3914H62.669L60.0054 70.4443V74.3123C60.0054 74.8442 60.0054 75.231 60.0538 75.376C60.1023 75.5694 60.1991 75.7145 60.3444 75.8595C60.5381 76.0046 60.7318 76.1013 61.0708 76.1013V76.343H58.6978V76.1013C58.9884 76.1013 59.2306 76.0046 59.3758 75.8595C59.5696 75.7145 59.6664 75.5694 59.7148 75.3277C59.7633 75.1343 59.7633 74.7475 59.7633 74.2156V71.3146C59.7633 70.7827 59.7633 70.4443 59.7148 70.2992C59.6664 70.1542 59.618 70.0575 59.5211 69.9608C59.4243 69.9124 59.1821 69.8641 58.8431 69.8641H58.6494V69.6223H60.6834L63.1533 75.2793Z" fill="#53575A"/>
<path d="M72.0642 72.2332V75.0375C72.0642 75.4727 72.0642 75.7145 72.0642 75.8595C72.0642 75.9562 72.1126 76.0529 72.2095 76.1013C72.3063 76.1496 72.4516 76.198 72.6453 76.198H72.7422V76.4397H70.6113V76.198H70.7566C70.9988 76.198 71.144 76.1496 71.1925 76.1013C71.2409 76.0529 71.2893 75.9562 71.3378 75.8595C71.3378 75.7628 71.3378 75.4727 71.3378 75.0375V73.8288C71.3378 73.3453 71.3378 73.0552 71.2893 72.9585C71.2409 72.8618 71.1925 72.7651 71.0956 72.7651C70.9988 72.7167 70.9019 72.7167 70.7082 72.7167H70.6113V72.475C71.1925 72.4266 71.6283 72.3299 71.9673 72.2332H72.0642ZM71.0956 70.2025C71.0956 70.0575 71.144 69.9608 71.2409 69.8157C71.3378 69.719 71.483 69.6707 71.5799 69.6707C71.7252 69.6707 71.822 69.719 71.9189 69.8157C72.0158 69.9124 72.0642 70.0575 72.0642 70.2025C72.0642 70.3476 72.0158 70.4926 71.9189 70.5893C71.822 70.686 71.7252 70.7344 71.5799 70.7344C71.4346 70.7344 71.3378 70.686 71.2409 70.5893C71.144 70.4443 71.0956 70.3476 71.0956 70.2025Z" fill="#53575A"/>
<path d="M79.4253 75.4243H79.619C79.3769 76.1979 78.8442 76.5847 77.9725 76.5847C77.3913 76.5847 76.907 76.3913 76.5196 76.0045C76.1322 75.6177 75.9385 75.0858 75.9385 74.4573C75.9385 73.7804 76.1322 73.2485 76.568 72.8617C77.0039 72.4749 77.4882 72.2332 78.0693 72.2332C78.4083 72.2332 78.7473 72.3299 79.0379 72.4749C79.3285 72.62 79.4738 72.8134 79.4738 73.0068C79.4738 73.1035 79.4253 73.1518 79.3769 73.2485C79.3285 73.2969 79.2316 73.3452 79.1348 73.3452C78.941 73.3452 78.7958 73.2002 78.7473 72.9584C78.6989 72.765 78.6505 72.62 78.5536 72.5716C78.4568 72.4749 78.3115 72.4749 78.0693 72.4749C77.6335 72.4749 77.2945 72.62 77.1008 72.9101C76.8586 73.2002 76.7618 73.6837 76.7618 74.2639C76.7618 74.8924 76.8586 75.3759 77.1008 75.7627C77.3429 76.1012 77.6819 76.2946 78.1662 76.2946C78.8442 76.3429 79.2316 76.0045 79.4253 75.4243Z" fill="#53575A"/>
<path d="M86.8833 75.666H87.077C87.0285 76.2462 86.7864 76.488 86.2537 76.488C86.0115 76.488 85.8663 76.4396 85.721 76.2946C85.5757 76.1979 85.5273 76.0045 85.4788 75.7627C85.1398 76.0045 84.8493 76.1495 84.6071 76.2946C84.3165 76.3913 84.0744 76.488 83.8807 76.488C83.5901 76.488 83.3964 76.3913 83.2027 76.2462C83.009 76.1012 82.9121 75.8594 82.9121 75.6177C82.9121 75.2792 83.0574 74.9891 83.3964 74.7474C83.7354 74.5056 84.1713 74.2639 84.7524 74.0221L85.5273 73.732V73.5386C85.5273 73.2485 85.5273 73.0551 85.4788 72.9584C85.4304 72.8134 85.3335 72.7167 85.1883 72.62C85.043 72.5233 84.8493 72.4749 84.6071 72.4749C84.1228 72.4749 83.8323 72.62 83.7838 72.9584C83.7354 73.2969 83.5901 73.4419 83.348 73.4419C83.1543 73.4419 83.0574 73.3452 83.0574 73.1518C83.0574 72.9584 83.2027 72.765 83.4448 72.5716C83.687 72.3782 84.1228 72.2332 84.704 72.2332C85.1398 72.2332 85.4304 72.2815 85.6725 72.4266C85.9147 72.5716 86.06 72.7167 86.1084 72.8617C86.2053 73.0068 86.2053 73.2969 86.2053 73.6353V75.2792C86.2053 75.666 86.2053 75.9078 86.2537 76.0045C86.3021 76.1012 86.399 76.1495 86.4958 76.1495C86.738 76.1495 86.8348 76.0045 86.8833 75.666ZM85.4788 73.9738L84.9461 74.1672C84.1228 74.5056 83.687 74.9408 83.687 75.4726C83.687 75.666 83.7354 75.8594 83.8323 75.9561C83.9291 76.1012 84.0744 76.1495 84.2681 76.1495C84.4134 76.1495 84.6071 76.1012 84.8008 76.0045C84.9945 75.9078 85.2367 75.7627 85.4788 75.5693V73.9738Z" fill="#53575A"/>
<path d="M102.235 76.4397H100.443C100.104 76.198 99.6198 75.6178 98.9902 74.6991C98.7965 74.409 98.5544 74.1189 98.3607 73.8288C98.1185 73.5387 97.9732 73.3936 97.8764 73.3453C97.7795 73.2969 97.6827 73.2486 97.4889 73.2486H97.2468V74.7474C97.2468 75.2793 97.2468 75.6178 97.2952 75.7628C97.3437 75.9079 97.3921 76.0529 97.4889 76.1013C97.5858 76.198 97.7795 76.198 98.1185 76.198H98.4575V76.4397H95.2612V76.198H95.4549C95.7455 76.198 95.9392 76.1496 96.0361 76.1013C96.1329 76.0529 96.2298 75.9079 96.2298 75.7628C96.2782 75.6178 96.2782 75.2793 96.2782 74.6991V71.4596C96.2782 70.9278 96.2782 70.5893 96.2298 70.4443C96.1814 70.2992 96.1329 70.2025 96.0361 70.1058C95.9392 70.0575 95.6971 70.0091 95.3581 70.0091H95.2612V69.7674L96.2298 69.719C96.8594 69.6706 97.3921 69.6707 97.7311 69.6707C98.3607 69.6707 98.8934 69.719 99.2808 69.8641C99.6682 69.9608 100.007 70.1542 100.249 70.4443C100.491 70.7344 100.637 71.0245 100.637 71.4113C100.637 71.8464 100.492 72.2332 100.153 72.5233C99.8135 72.8134 99.3777 73.0068 98.7481 73.1035C99.0387 73.2486 99.4745 73.7321 100.104 74.554C100.588 75.2309 101.024 75.6661 101.315 75.8595C101.605 76.0529 101.944 76.198 102.332 76.198V76.4397H102.235ZM97.1984 73.0068C97.4405 73.0068 97.6827 73.0068 97.9732 72.9585C98.2154 72.9585 98.4575 72.9101 98.6512 72.8618C98.8449 72.8134 98.9902 72.7167 99.1355 72.62C99.2324 72.5233 99.3292 72.3783 99.4261 72.1849C99.4745 71.9915 99.5229 71.7981 99.5229 71.508C99.5229 71.0245 99.4261 70.686 99.1839 70.3959C98.9418 70.1058 98.4575 69.9608 97.6342 69.9608C97.5374 69.9608 97.3921 69.9608 97.1984 69.9608V73.0068Z" fill="#53575A"/>
<path d="M104.802 74.4089C104.802 73.7804 104.995 73.2969 105.431 72.8617C105.867 72.4265 106.351 72.2332 106.933 72.2332C107.514 72.2332 108.046 72.4265 108.482 72.8617C108.918 73.2969 109.112 73.7804 109.112 74.4089C109.112 75.0858 108.918 75.6177 108.482 76.0045C108.046 76.3913 107.562 76.5847 106.981 76.5847C106.4 76.5847 105.867 76.3913 105.48 76.0045C104.995 75.6177 104.802 75.0858 104.802 74.4089ZM105.577 74.4089C105.577 75.1342 105.673 75.6177 105.916 75.9078C106.158 76.1979 106.497 76.3429 106.884 76.3429C107.32 76.3429 107.659 76.1979 107.853 75.9078C108.095 75.6177 108.192 75.1342 108.192 74.4089C108.192 73.6837 108.095 73.2002 107.853 72.9101C107.611 72.62 107.32 72.4749 106.884 72.4749C106.448 72.4749 106.109 72.62 105.916 72.9101C105.722 73.2002 105.577 73.732 105.577 74.4089Z" fill="#53575A"/>
<path d="M115.892 75.4243H116.086C115.844 76.1979 115.311 76.5847 114.439 76.5847C113.858 76.5847 113.374 76.3913 112.986 76.0045C112.599 75.6177 112.405 75.0858 112.405 74.4573C112.405 73.7804 112.599 73.2485 113.035 72.8617C113.471 72.4749 113.955 72.2332 114.536 72.2332C114.875 72.2332 115.214 72.3299 115.505 72.4749C115.795 72.62 115.941 72.8134 115.941 73.0068C115.941 73.1035 115.892 73.1518 115.844 73.2485C115.795 73.2969 115.698 73.3452 115.602 73.3452C115.408 73.3452 115.263 73.2002 115.214 72.9584C115.166 72.765 115.117 72.62 115.02 72.5716C114.924 72.4749 114.778 72.4749 114.536 72.4749C114.1 72.4749 113.761 72.62 113.568 72.9101C113.325 73.2002 113.229 73.6837 113.229 74.2639C113.229 74.8924 113.325 75.3759 113.568 75.7627C113.81 76.1012 114.149 76.2946 114.633 76.2946C115.311 76.3429 115.698 76.0045 115.892 75.4243Z" fill="#53575A"/>
<path d="M120.493 73.0552C120.686 72.7651 120.928 72.5717 121.171 72.4266C121.413 72.2816 121.703 72.2332 121.994 72.2332C122.333 72.2332 122.575 72.2816 122.817 72.4266C123.011 72.5717 123.156 72.7167 123.253 72.9101C123.301 73.1035 123.35 73.442 123.35 73.8771V74.9892C123.35 75.4727 123.35 75.7628 123.398 75.8595C123.398 75.9562 123.447 76.0529 123.544 76.1013C123.64 76.1496 123.786 76.1496 124.028 76.1496V76.3914H121.945V76.1496H122.042C122.284 76.1496 122.43 76.1013 122.527 76.0529C122.575 76.0046 122.623 75.9079 122.672 75.8112C122.672 75.7145 122.672 75.4727 122.672 74.9892V73.7804C122.672 73.442 122.672 73.2002 122.623 73.0552C122.575 72.9101 122.478 72.7651 122.333 72.6684C122.188 72.5717 121.994 72.5233 121.8 72.5233C121.558 72.5233 121.316 72.62 121.122 72.7651C120.928 72.9101 120.735 73.1519 120.589 73.442V75.0375C120.589 75.4727 120.589 75.7628 120.589 75.8595C120.589 75.9562 120.638 76.0529 120.735 76.1013C120.832 76.1496 120.977 76.198 121.219 76.198V76.4397H119.185V76.198H119.282C119.524 76.198 119.669 76.1496 119.718 76.1013C119.766 76.0529 119.815 75.9562 119.863 75.8595C119.863 75.7628 119.863 75.4727 119.863 75.0375V71.0245C119.863 70.6377 119.815 70.3476 119.766 70.2509C119.669 70.1542 119.524 70.1058 119.233 70.1058V69.8641C119.718 69.8641 120.154 69.8157 120.493 69.6707H120.589V73.0552H120.493Z" fill="#53575A"/>
<path d="M131.244 75.666H131.437C131.389 76.2462 131.147 76.488 130.614 76.488C130.372 76.488 130.227 76.4396 130.081 76.2946C129.936 76.1979 129.888 76.0045 129.839 75.7627C129.5 76.0045 129.21 76.1495 128.967 76.2946C128.677 76.3913 128.435 76.488 128.241 76.488C127.95 76.488 127.757 76.3913 127.563 76.2462C127.369 76.1012 127.272 75.8594 127.272 75.6177C127.272 75.2792 127.418 74.9891 127.757 74.7474C128.096 74.5056 128.532 74.2639 129.113 74.0221L129.888 73.732V73.5386C129.888 73.2485 129.888 73.0551 129.839 72.9584C129.791 72.8134 129.694 72.7167 129.549 72.62C129.403 72.5233 129.21 72.4749 128.967 72.4749C128.483 72.4749 128.193 72.62 128.144 72.9584C128.096 73.2969 127.95 73.4419 127.708 73.4419C127.515 73.4419 127.418 73.3452 127.418 73.1518C127.418 72.9584 127.563 72.765 127.805 72.5716C128.047 72.3782 128.483 72.2332 129.064 72.2332C129.5 72.2332 129.791 72.2815 130.033 72.4266C130.275 72.5716 130.42 72.7167 130.469 72.8617C130.566 73.0068 130.566 73.2969 130.566 73.6353V75.2792C130.566 75.666 130.566 75.9078 130.614 76.0045C130.662 76.1012 130.759 76.1495 130.856 76.1495C131.05 76.1495 131.147 76.0045 131.244 75.666ZM129.791 73.9738L129.258 74.1672C128.435 74.5056 127.999 74.9408 127.999 75.4726C127.999 75.666 128.047 75.8594 128.144 75.9561C128.241 76.1012 128.386 76.1495 128.58 76.1495C128.725 76.1495 128.919 76.1012 129.113 76.0045C129.306 75.9078 129.549 75.7627 129.791 75.5693V73.9738Z" fill="#53575A"/>
<path d="M4.21567 44.6253V22.1423C4.21567 20.5951 3.48925 19.0962 1.84268 19.0962L7.79938 18.2259V24.3181C9.39752 19.8698 13.4655 17.7424 17.9694 17.7424C22.7638 17.7424 27.1708 20.16 28.0425 24.7532C29.3985 19.9666 33.7086 17.7424 38.4062 17.7424C43.4427 17.7424 48.0919 20.4501 48.5277 25.5752V44.6736C48.5277 47.6713 50.2712 49.2669 52.402 49.2669H41.0697C43.2006 49.2669 44.9924 47.6713 44.9924 44.6736V25.5268C44.944 19.6281 40.9729 17.7908 35.9848 18.4677C32.2073 19.0479 29.3985 21.3687 28.2362 25.5268V44.6253C28.2362 47.623 30.028 49.2185 32.1589 49.2185H20.6814C22.8122 49.2185 24.6041 47.623 24.6041 44.6253V25.5268C24.5556 19.6281 20.6329 17.7908 15.5964 18.4677C11.8189 19.0479 9.01009 21.3687 7.84781 25.5268V44.6253C7.84781 47.623 9.63966 49.2185 11.7705 49.2185H0.292969C2.42382 49.2185 4.21567 47.623 4.21567 44.6253Z" fill="#53575A"/>
<path d="M59.9569 44.7218V22.1906C59.9569 20.6433 59.1336 19.1445 57.5355 19.1445L63.4922 18.2742V44.7218C63.4922 47.7196 65.284 49.3151 67.4149 49.3151H56.0342C58.165 49.3151 59.9569 47.6712 59.9569 44.7218Z" fill="#53575A"/>
<path d="M140.348 33.3111C144.561 30.8936 156.523 30.8453 157.298 24.9465C156.862 19.7247 152.988 17.7423 148.823 17.7423C144.513 17.7423 139.864 19.9181 138.314 23.0125C138.702 22.8191 138.992 22.7707 139.38 22.7707C140.687 22.7707 141.801 23.8345 141.801 25.1883C141.801 26.4937 140.687 27.6058 139.38 27.6058C138.024 27.6058 136.958 26.4937 136.958 25.1883C136.958 24.8982 136.958 24.5597 137.103 24.2696C138.992 19.4346 144.126 17.2104 149.162 17.2104C155.022 17.2104 160.64 20.2565 160.93 25.9135V44.3834C160.93 46.9943 161.172 48.1547 162.674 48.1547C163.255 48.1547 163.933 48.0097 164.804 47.7196C163.691 48.5415 161.947 49.1701 160.446 49.1701C158.751 49.1701 157.395 48.4448 157.395 46.3657V43.6581C155.167 47.5262 149.695 49.4118 145.191 49.4118C144.368 49.4118 143.593 49.3635 142.818 49.2184C134.343 47.7196 132.89 37.5176 140.348 33.3111ZM147.564 48.6382C151.051 48.2514 156.814 45.3987 157.395 42.4977V26.3487C154.78 31.4255 146.934 30.5552 142.866 33.843C137.297 38.3396 138.653 49.6052 147.564 48.6382Z" fill="#53575A"/>
<path d="M60.877 14.8897C59.5694 14.8897 58.4556 13.7777 58.4556 12.4722C58.4556 11.1184 59.5694 10.0063 60.877 10.0063C62.233 10.0063 63.2984 11.1184 63.2984 12.4722C63.2984 13.7777 62.2814 14.8897 60.877 14.8897Z" fill="#53575A"/>
<path d="M119.718 49.5086H131.147C129.016 49.5086 127.224 46.8493 127.224 43.9483V26.0103C127.224 20.5467 121.8 17.7423 116.037 17.7423C112.066 17.7423 107.901 19.0962 105.286 21.8038V0.384553L99.7652 1.15816H99.7168C98.4092 0.577955 96.9564 0.239502 95.4067 0.239502C90.3701 0.239502 86.3505 4.25259 86.3505 9.28103C86.3505 11.215 87.077 13.2941 88.1424 14.793L91.3871 19.9665C88.7235 18.4193 85.4788 17.7423 82.3794 17.7423C80.1033 17.7423 77.924 18.1292 76.1806 18.8544C70.2239 21.417 69.3521 29.3948 76.0353 32.1991C80.3454 33.9881 87.1738 35.2452 90.6607 38.388C94.5349 41.9175 91.5808 49.4119 82.0888 48.9767C76.6164 48.735 73.0811 46.6075 70.7566 44.6735L70.3691 45.0603C73.517 47.9614 78.4083 49.5086 83.009 49.5086C85.6725 49.5086 88.2877 49.0251 90.4185 47.9614C95.8425 45.3988 97.8281 36.9375 90.128 33.2628C87.2223 31.8123 83.687 30.797 79.5221 29.3464C69.7396 26.0103 74.7277 17.9841 82.4278 18.1775C85.2851 18.2259 88.5298 18.6127 91.484 20.45C90.1764 20.4983 89.2078 21.6104 89.2078 22.8675C89.2078 24.2213 90.2732 25.285 91.6292 25.285C92.9368 25.285 94.0507 24.2213 94.0507 22.8675C94.0507 21.9488 93.4695 21.0785 92.6947 20.6917C90.2732 16.6786 86.738 13.2458 86.738 9.23268C86.738 4.44599 90.7091 0.481254 95.5035 0.481254C97.1017 0.481254 98.5545 0.819707 99.8621 1.44826C99.9589 1.49661 100.104 1.59331 100.201 1.64166C100.831 2.02847 101.799 2.85042 101.848 4.15588V43.9483C101.848 46.8493 100.056 49.5086 97.9249 49.5086H109.306C107.175 49.5086 105.383 46.8493 105.383 43.9483V23.2059C105.431 23.0609 105.528 22.9158 105.577 22.7708C106.933 20.1115 111.388 18.1775 115.553 18.1775C119.911 18.1775 123.979 20.3533 123.834 26.0103V43.9483C123.64 46.8493 121.849 49.5086 119.718 49.5086Z" fill="#53575A"/>
</svg>
